<svg aria-hidden="true" width="18" height="18" viewbox="0 0 18 18"><path d="m8.9844-0.013672a1 1 0 0 0 -0.98438 1.0137v0.38281l-0.55273-0.27734a1 1 0 0 0 -0.48242 -0.11133 1 1 0 0 0 -0.41211 1.9004l1.4473 0.72266v3.6523l-3.1621-1.8262 0.097656-1.6152a1 1 0 0 0 -0.95117 -1.0742 1 1 0 0 0 -1.0449 0.95508l-0.037109 0.61719-0.33008-0.19141a1 1 0 0 0 -0.57422 -0.14062 1 1 0 0 0 -0.42578 1.8711l0.33203 0.19141-0.51758 0.3418a1 1 0 1 0 1.1016 1.668l1.3516-0.89258 3.1621 1.8262-3.1621 1.8262-1.3516-0.89258a1 1 0 0 0 -0.56445 -0.17383 1 1 0 0 0 -0.53711 1.8418l0.51758 0.3418-0.33203 0.19141a1 1 0 1 0 1 1.7305l0.33008-0.19141 0.037109 0.61719a1 1 0 1 0 1.9961 -0.11914l-0.097656-1.6152 3.1621-1.8262v3.6523l-1.4473 0.72266a1 1 0 0 0 0.89453 1.7891l0.55273-0.27734v0.38281a1 1 0 1 0 2 0v-0.38281l0.55273 0.27734a1 1 0 1 0 0.89453 -1.7891l-1.4473-0.72266v-3.6523l3.1621 1.8262-0.097656 1.6152a1 1 0 1 0 1.9961 0.11914l0.037109-0.61719 0.33008 0.19141a1 1 0 1 0 1 -1.7305l-0.33203-0.19141 0.51758-0.3418a1 1 0 0 0 -0.56641 -1.8418 1 1 0 0 0 -0.53516 0.17383l-1.3516 0.89258-3.1621-1.8262 3.1621-1.8262 1.3516 0.89258a1 1 0 1 0 1.1016 -1.668l-0.51758-0.3418 0.33203-0.19141a1 1 0 0 0 -0.45508 -1.8711 1 1 0 0 0 -0.54492 0.14062l-0.33008 0.19141-0.037109-0.61719a1 1 0 0 0 -0.97461 -0.95508 1 1 0 0 0 -1.0215 1.0742l0.097656 1.6152-3.1621 1.8262v-3.6523l1.4473-0.72266a1 1 0 1 0 -0.89453 -1.7891l-0.55273 0.27734v-0.38281a1 1 0 0 0 -1.0156 -1.0137z"></path></svg>